<?xml version="1.0" encoding="UTF-8"?>
<svg width="219px" height="219px" viewBox="0 0 219 219" version="1.1" xmlns="http://www.w3.org/2000/svg" xmlns:xlink="http://www.w3.org/1999/xlink">
    <title>Group 10</title>
    <g id="Page-1" stroke="none" stroke-width="1" fill="none" fill-rule="evenodd">
        <g id="Group-10">
            <g id="path4252" transform="translate(18.000000, 18.000000)" fill="#FFFFFF" stroke="#979797">
                <circle id="Oval" cx="91.5" cy="91.5" r="91.5"></circle>
            </g>
            <g id="Group-9">
                <g id="Group-6" transform="translate(47.000000, 58.000000)" fill-rule="nonzero" stroke="#1B1515">
                    <path d="M11.6226105,16.376091 C12.1006978,14.3431665 12.8830226,11.2053917 13.36111,9.39343719 C13.7957348,7.58148271 14.2738222,6.38824439 14.4042097,6.74179649 C14.5345971,7.09534858 15.0126845,8.81891504 15.4907719,10.4982875 C15.9688592,12.2218539 16.7946465,15.0502707 17.3161963,16.8180312 L18.2289086,20 L20.3585704,20 C21.9666825,20 22.6186198,19.823224 22.8793947,19.2487018 C23.4878695,18.0112695 28.1818182,2.49917136 28.1818182,1.65948514 C28.1818182,1.08496299 27.8341183,0.952380952 26.3563937,1.08496299 L24.5309692,1.21754502 L22.5751573,8.2885869 L20.6193454,15.3596288 L19.5762457,11.8241078 C19.0112333,9.87957132 18.0550586,6.65340846 17.4900463,4.62048392 L16.4034841,0.952380952 L14.1434347,1.08496299 L11.8833854,1.21754502 L10.1883484,7.97922881 C9.27563616,11.6915258 8.36292392,14.5641366 8.18907397,14.3873605 C8.01522402,14.2105845 7.01558681,11.1170036 5.97248711,7.5372887 L4.06013767,0.996574964 L1.97393827,0.996574964 C0.452751213,0.996574964 -0.112261123,1.17335101 0.0181263392,1.57109712 C0.148513801,1.83626119 1.5393134,6.12308032 3.14742543,11.0728096 L6.10287458,20 L8.36292392,20 L10.6664358,20 L11.6226105,16.376091 Z" id="Path" fill="#323232"></path>
                    <path d="M65.7144617,17.3445378 L65.7144617,15.6414566 L61.6617413,15.6414566 C59.4198108,15.6414566 57.2641085,15.5137255 56.876082,15.3859944 C54.2461252,14.3641457 54.3323533,6.01904762 57.0054242,4.6140056 C57.5227927,4.35854342 59.6784951,4.14565826 61.8341975,4.14565826 L65.7575758,4.14565826 L65.6282336,2.57030812 L65.4988915,0.952380952 L60.9288025,0.994957983 C55.3670904,1.08011204 53.2976161,1.93165266 51.9179666,4.57142857 C50.6676592,6.99831933 50.3658609,10.702521 51.1850278,13.5551821 C52.4353352,17.7277311 54.8497218,19.005042 61.5323991,19.047619 L65.7144617,19.047619 L65.7144617,17.3445378 Z" id="Path" fill="#323232"></path>
                    <path d="M43.2121212,18.2404047 L43.2121212,16.4808094 L38.8274261,16.4808094 C34.5756006,16.4808094 34.3984412,16.4368195 33.5126442,15.3370725 C32.981166,14.6772242 32.5825573,13.7094468 32.5825573,13.1375784 C32.5825573,12.0818212 32.5825573,12.0818212 37.8973393,12.0818212 L43.2121212,12.0818212 L43.2121212,10.5421753 L43.2121212,9.00252942 L37.8973393,9.00252942 C32.1839487,9.00252942 31.9182096,8.87055977 33.1140355,6.67106565 C34.0441224,4.91147036 34.8856295,4.64753107 39.1374551,4.60354119 L43.2121212,4.60354119 L43.2121212,2.79995601 L43.2121212,0.952380952 L38.6945566,1.17233036 C32.1839487,1.52424942 30.1023258,2.5800066 28.7736303,6.23116683 C28.0649927,8.21071154 27.976413,12.5657099 28.5964709,14.7212141 C29.1279491,16.5687892 31.4753111,18.9882327 33.2911949,19.5601012 C33.9998325,19.7360607 36.5243539,19.9560101 38.9160058,19.9560101 L43.2121212,20 L43.2121212,18.2404047 Z" id="Path" fill="#323232"></path>
                    <path d="M124,17.2880238 L124,15.5284285 L119.615305,15.5284285 C115.363479,15.5284285 115.18632,15.4844386 114.300523,14.3846915 C113.769045,13.7248433 113.370436,12.7570659 113.370436,12.1851974 C113.370436,11.1294402 113.370436,11.1294402 118.685218,11.1294402 L124,11.1294402 L124,9.58979435 L124,8.05014847 L118.685218,8.05014847 C112.971827,8.05014847 112.706088,7.91817882 113.901914,5.7186847 C114.832001,3.95908941 115.673508,3.69515012 119.925334,3.65116023 L124,3.65116023 L124,1.84757506 L124,0 L119.482435,0.219949412 C112.971827,0.57186847 110.890205,1.62762565 109.561509,5.27878588 C108.852871,7.25833058 108.764292,11.6133289 109.38435,13.7688332 C109.915828,15.6164082 112.26319,18.0358518 114.079074,18.6077202 C114.787711,18.7836798 117.312233,19.0036292 119.703885,19.0036292 L124,19.047619 L124,17.2880238 Z" id="Path" fill="#323232"></path>
                    <g id="Group" transform="translate(67.636364, 0.000000)">
                        <path d="M5.18962963,16.8379185 L6.15407407,14.6282179 L10.3333333,14.6282179 L14.5125926,14.6282179 L15.477037,16.8379185 C16.4414815,19.047619 16.4874074,19.047619 18.5540741,19.047619 C19.7022222,19.047619 20.6666667,18.915037 20.6666667,18.738261 C20.6207407,18.5172909 18.8296296,14.3188598 16.6251852,9.32493647 L12.6296296,0.26516407 L10.517037,0.132582035 L8.40444444,0 L7.21037037,2.56325268 C6.56740741,3.97746105 5.00592593,7.51298199 3.76592593,10.4297868 C2.48,13.3465915 1.10222222,16.4843664 0.734814815,17.4124406 L0,19.047619 L2.11259259,19.047619 C4.17925926,19.047619 4.22518519,19.047619 5.18962963,16.8379185 Z" id="Path" fill="#323232"></path>
                        <path d="M7.51515152,10.0776723 C7.51515152,9.51974687 9.61597796,5.17589882 10.077135,4.77738065 C10.4358127,4.45856612 13.1515152,9.16108052 13.1515152,10.0776723 C13.1515152,10.3167832 11.8705234,10.4761905 10.3333333,10.4761905 C8.79614325,10.4761905 7.51515152,10.3167832 7.51515152,10.0776723 Z" id="Path" fill="#FDFDFD"></path>
                    </g>
                    <g id="Group-2" transform="translate(90.181818, 0.952381)">
                        <path d="M4.00478469,14.6485261 L4.00478469,11.2018141 L6.36315789,11.2018141 L8.76602871,11.2018141 L10.7239234,14.6485261 L12.6818182,18.0952381 L14.8177033,18.0952381 C15.9746411,18.0952381 16.9090909,17.9659864 16.9090909,17.7936508 C16.9090909,17.5782313 15.8856459,15.8979592 14.7287081,14.0022676 L12.5483254,10.5555556 L13.7942584,10.0816327 C16.0636364,9.13378685 17.0425837,5.64399093 15.8411483,2.88662132 C14.8177033,0.473922902 13.2602871,0 6.00717703,0 L0,0 L0,9.04761905 L0,18.0952381 L2.00239234,18.0952381 L4.00478469,18.0952381 L4.00478469,14.6485261 Z" id="Path" fill="#323232"></path>
                        <path d="M3.75757576,5.23809524 L3.75757576,2.85714286 L6.5813834,2.9004329 C10.3912826,2.94372294 11.5118412,3.33333333 12.004887,4.71861472 C12.3634657,5.62770563 12.273821,6.06060606 11.6014859,6.75324675 C10.9291507,7.48917749 10.2568156,7.61904762 7.25371856,7.61904762 L3.75757576,7.61904762 L3.75757576,5.23809524 Z" id="Path" fill="#FDFDFD"></path>
                    </g>
                </g>
                <g id="Group-7" transform="translate(60.000000, 99.000000)" fill-rule="nonzero" stroke="#1B1515">
                    <g id="Group" transform="translate(0.000000, 0.952381)">
                        <path d="M4.92177778,16.8379185 L5.83644444,14.6282179 L9.8,14.6282179 L13.7635556,14.6282179 L14.6782222,16.8379185 C15.5928889,19.047619 15.6364444,19.047619 17.5964444,19.047619 C18.6853333,19.047619 19.6,18.915037 19.6,18.738261 C19.5564444,18.5172909 17.8577778,14.3188598 15.7671111,9.32493647 L11.9777778,0.26516407 L9.97422222,0.132582035 L7.97066667,0 L6.83822222,2.56325268 C6.22844444,3.97746105 4.74755556,7.51298199 3.57155556,10.4297868 C2.352,13.3465915 1.04533333,16.4843664 0.696888889,17.4124406 L0,19.047619 L2.00355556,19.047619 C3.96355556,19.047619 4.00711111,19.047619 4.92177778,16.8379185 Z" id="Path" fill="#323232"></path>
                        <path d="M7.46666667,10.0776723 C7.46666667,9.51974687 9.20606061,5.17589882 9.58787879,4.77738065 C9.88484848,4.45856612 12.1333333,9.16108052 12.1333333,10.0776723 C12.1333333,10.3167832 11.0727273,10.4761905 9.8,10.4761905 C8.52727273,10.4761905 7.46666667,10.3167832 7.46666667,10.0776723 Z" id="Path" fill="#FDFDFD"></path>
                    </g>
                    <g id="Group-3" transform="translate(22.400000, 0.952381)">
                        <path d="M13.8445451,18.464986 C16.9707327,17.3893557 17.8192694,13.0420168 15.4076389,10.5322129 L14.2911434,9.36694678 L15.3629791,8.33613445 C16.7474336,7.03641457 17.1047122,5.01960784 16.3454952,3.1372549 C15.1843398,0.403361345 14.1125041,0.0448179272 6.74363327,0.0448179272 L0.223299115,0 L0.089319646,9.54621849 L0,19.047619 L6.11839575,19.0028011 C9.64652176,19.0028011 12.9513487,18.7787115 13.8445451,18.464986 Z" id="Path" fill="#323232"></path>
                        <path d="M3.86527051,12.8822055 L3.99720768,10.4761905 L7.64746946,10.4761905 C11.4736475,10.4761905 12.1333333,10.8270677 12.1333333,13.0325815 C12.1333333,14.8370927 11.2537522,15.2380952 7.38359511,15.2380952 L3.73333333,15.2380952 L3.86527051,12.8822055 Z" id="Path" fill="#FDFDFD"></path>
                        <path d="M3.73333333,6.19047619 L3.73333333,3.80952381 L7.22596491,3.80952381 C10.9396491,3.80952381 12.1333333,4.38095238 12.1333333,6.19047619 C12.1333333,8 10.9396491,8.57142857 7.22596491,8.57142857 L3.73333333,8.57142857 L3.73333333,6.19047619 Z" id="Path" fill="#FDFDFD"></path>
                    </g>
                    <g id="Group-4" transform="translate(42.000000, 0.000000)">
                        <path d="M12.4985136,19.5088509 C16.0997802,18.4136377 18.1334366,14.0784186 17.6673904,8.60235246 C17.2013441,3.12628631 14.8287449,0.479521004 10.0835465,0.0688160424 C3.34705957,-0.524424457 0.0423678426,2.71558135 0,9.88010123 C0,13.2570087 0.677885482,15.7668723 2.03365645,17.4553261 C3.89784152,19.7370203 8.64303989,20.649698 12.4985136,19.5088509 Z" id="Path" fill="#323232"></path>
                        <path d="M7.55409576,15.8364844 C5.14808282,14.5550769 4.54657958,12.8160239 4.68538802,7.59886471 C4.82419646,2.70205745 11.9034268,1.00876896 14.1706314,5.35640157 C15.6049852,8.1022748 14.910943,13.7313149 12.9676249,15.3788389 C11.9034268,16.2026008 8.80337171,16.4771882 7.55409576,15.8364844 Z" id="Path" fill="#FDFDFD"></path>
                    </g>
                    <path d="M77.0763181,19.0729289 C79.7136729,17.6893403 79.9689008,16.7520706 80.1390527,8.45053874 L80.2666667,0.952380952 L78.3524576,0.952380952 L76.3957105,0.952380952 L76.2680965,8.1381155 C76.1404826,15.0560587 76.0979446,15.32385 75.119571,16.171856 C73.6307417,17.4661808 70.6530831,17.3322852 69.3344057,15.9040646 C68.3134942,14.8328992 68.2709562,14.6543717 68.2709562,7.87032415 L68.2709562,0.952380952 L66.3142091,0.952380952 L64.4,0.952380952 L64.5276139,8.71833009 L64.6552279,16.5289111 L65.8462913,17.823236 C66.526899,18.5373462 67.6754245,19.3407203 68.3985702,19.6085116 C70.3127793,20.3226219 75.4173369,20.0101987 77.0763181,19.0729289 Z" id="Path" fill="#323232"></path>
                    <path d="M92.2755556,11.4285714 L92.4,3.76522702 L95.2207407,3.63233666 L98,3.49944629 L98,1.77187154 L98,0 L90.5333333,0 L83.0666667,0 L83.0666667,1.77187154 L83.0666667,3.54374308 L85.762963,3.54374308 L88.4592593,3.54374308 L88.4592593,10.9856035 C88.4592593,15.1052049 88.5837037,18.6046512 88.7496296,18.7375415 C88.8740741,18.9147287 89.7037037,19.047619 90.5748148,19.047619 L92.1925926,19.047619 L92.2755556,11.4285714 Z" id="Path" fill="#323232"></path>
                </g>
                <path d="M109,196 C60.9484913,196 22,157.052083 22,109.001849 C22,60.9516148 60.9484913,22 109,22 C157.044114,22 196,60.9516148 196,109.001849 C196,157.052083 157.044114,196 109,196 Z M216.619385,104.261771 L205.263134,94.3315701 L212.99599,81.3775331 C215.153825,77.7615967 213.636712,73.071926 209.76292,71.4156651 L195.887967,65.4828781 L199.238871,50.7716875 C200.181543,46.6660163 197.279881,42.6759666 193.082045,42.2981712 L178.058211,40.9423792 L176.70312,25.9145179 C176.320159,21.7204735 172.335898,18.8218329 168.226437,19.7585887 L153.519282,23.1123513 L147.583394,9.23923309 C145.926354,5.36775085 141.235088,3.84331329 137.619057,6.00256494 L124.664683,13.7389014 L114.737169,2.37779119 C111.96807,-0.792597064 107.033771,-0.792597064 104.264673,2.37779119 L94.3297939,13.7389014 L81.3754193,6.00256494 C77.7593886,3.84331329 73.0681228,5.36775085 71.4184469,9.23923309 L65.4825595,23.1123513 L50.7680395,19.7585887 C46.6659437,18.8218329 42.6743171,21.7204735 42.2987213,25.9145179 L40.9436304,40.9423792 L25.9124316,42.2981712 C21.7219602,42.6759666 18.8202981,46.6660163 19.7556054,50.7716875 L23.1138742,65.4828781 L9.23892154,71.4156651 C5.36512901,73.071926 3.84065172,77.7615967 5.99848672,81.3775331 L13.7387072,94.3315701 L2.37509143,104.261771 C-0.791697142,107.033007 -0.791697142,111.964231 2.37509143,114.735467 L13.7387072,124.665668 L5.99848672,137.619705 C3.84065172,141.235642 5.36512901,145.925312 9.23892154,147.581573 L23.1138742,153.51436 L19.7556054,168.22776 C18.8202981,172.329749 21.7219602,176.321272 25.9124316,176.696858 L40.9436304,178.051913 L42.2987213,193.08272 C42.6743171,197.273083 46.6659437,200.174669 50.7680395,199.239386 L65.4825595,195.881205 L71.4184469,209.755796 C73.0681228,213.629487 77.7593886,215.153925 81.3754193,212.996146 L94.3297939,205.256128 L104.264673,216.619447 C107.033771,219.793518 111.96807,219.793518 114.737169,216.619447 L124.664683,205.256128 L137.619057,212.996146 C141.235088,215.153925 145.926354,213.629487 147.583394,209.755796 L153.519282,195.881205 L168.226437,199.239386 C172.335898,200.174669 176.320159,197.273083 176.70312,193.08272 L178.058211,178.051913 L193.082045,176.696858 C197.279881,176.321272 200.181543,172.329749 199.238871,168.22776 L195.887967,153.51436 L209.76292,147.581573 C213.636712,145.925312 215.153825,141.235642 212.99599,137.619705 L205.263134,124.665668 L216.619385,114.735467 C219.793538,111.964231 219.793538,107.033007 216.619385,104.261771 L216.619385,104.261771 Z" id="Fill-234" fill="#CF0A2C"></path>
                <polygon id="Fill-259" fill="#CF0A2C" points="33 129 185 129 185 127 33 127"></polygon>
                <polygon id="Fill-260" fill="#CF0A2C" points="33 91 185 91 185 89 33 89"></polygon>
                <g id="Group-8" transform="translate(45.000000, 140.000000)" fill-rule="nonzero" stroke="#1B1515">
                    <g id="Group" transform="translate(42.065217, 0.952381)">
                        <path d="M4.92942029,16.8379185 L5.84550725,14.6282179 L9.81521739,14.6282179 L13.7849275,14.6282179 L14.7010145,16.8379185 C15.6171014,19.047619 15.6607246,19.047619 17.6237681,19.047619 C18.7143478,19.047619 19.6304348,18.915037 19.6304348,18.738261 C19.5868116,18.5172909 17.8855072,14.3188598 15.7915942,9.32493647 L11.9963768,0.26516407 L9.98971014,0.132582035 L7.98304348,0 L6.84884058,2.56325268 C6.23811594,3.97746105 4.75492754,7.51298199 3.57710145,10.4297868 C2.35565217,13.3465915 1.04695652,16.4843664 0.697971014,17.4124406 L0,19.047619 L2.00666667,19.047619 C3.96971014,19.047619 4.01333333,19.047619 4.92942029,16.8379185 Z" id="Path" fill="#323232"></path>
                        <path d="M7.47826087,10.0776723 C7.47826087,9.51974687 9.22035573,5.17589882 9.6027668,4.77738065 C9.90019763,4.45856612 12.1521739,9.16108052 12.1521739,10.0776723 C12.1521739,10.3167832 11.0899209,10.4761905 9.81521739,10.4761905 C8.54051383,10.4761905 7.47826087,10.3167832 7.47826087,10.0776723 Z" id="Path" fill="#FDFDFD"></path>
                    </g>
                    <path d="M77.4543184,16.7198281 L77.3216804,15.3014365 L73.6962397,15.0865287 C68.4791422,14.7856577 68.5233549,14.8716209 68.3022914,6.66214229 L68.1696533,0 L66.3127203,0.12894469 L64.5,0.257889379 L64.5442127,6.92003167 C64.5884254,14.3988237 64.9863396,15.7742337 67.506463,17.2356068 C68.6559929,17.9233118 69.7170975,18.0952381 73.2541128,18.0952381 L77.5869565,18.0952381 L77.4543184,16.7198281 Z" id="Path" fill="#323232"></path>
                    <path d="M35.1307845,19.0729289 C37.7722345,17.6893403 38.0278587,16.7520706 38.1982749,8.45053874 L38.326087,0.952380952 L36.4089055,0.952380952 L34.4491199,0.952380952 L34.3213078,8.1381155 C34.1934957,15.0560587 34.1508917,15.32385 33.170999,16.171856 C31.6798578,17.4661808 28.6975755,17.3322852 27.3768504,15.9040646 C26.3543537,14.8328992 26.3117496,14.6543717 26.3117496,7.87032415 L26.3117496,0.952380952 L24.3519641,0.952380952 L22.4347826,0.952380952 L22.5625947,8.71833009 L22.6904068,16.5289111 L23.8833197,17.823236 C24.5649843,18.5373462 25.7152932,19.3407203 26.4395617,19.6085116 C28.3567432,20.3226219 33.4692272,20.0101987 35.1307845,19.0729289 Z" id="Path" fill="#323232"></path>
                    <path d="M102.343116,10.8571429 L102.475543,3.57696567 L105.477234,3.45071982 L108.434783,3.32447398 L108.434783,1.68327796 L108.434783,0 L100.48913,0 L92.5434783,0 L92.5434783,1.68327796 L92.5434783,3.36655592 L95.4127415,3.36655592 L98.2820048,3.36655592 L98.2820048,10.4363234 C98.2820048,14.3499446 98.4144324,17.6744186 98.5910024,17.8006645 C98.72343,17.9689922 99.6062802,18.0952381 100.533273,18.0952381 L102.254831,18.0952381 L102.343116,10.8571429 Z" id="Path" fill="#323232"></path>
                    <g id="Group-5">
                        <path d="M15.7557245,18.8207904 L18.6956522,18.8645085 L17.4776822,17.5092487 C16.2597121,16.1977069 16.2597121,16.1977069 16.9736946,14.4052665 C18.4436584,10.5580774 17.5616801,4.17524098 15.209738,2.03305614 C13.1937876,0.153179649 8.74189719,-0.546309278 5.255983,0.459206055 C1.09808535,1.68331168 -1.00186296,7.2792231 0.468100859,13.3123151 C1.47607605,17.5529667 4.45800264,19.3891252 9.66587445,18.9956626 C11.3878321,18.8645085 14.1597638,18.7770723 15.7557245,18.8207904 Z" id="Path" fill="#323232"></path>
                        <path d="M7.59743381,15.0576044 C5.87887522,14.5491066 4.87288971,12.7269897 4.70522546,9.76075295 C4.49564515,6.2012688 5.33396641,4.16727786 7.34593743,3.27740682 C9.23216026,2.47228541 11.3698795,2.85365871 12.5854453,4.16727786 C14.5555003,6.28601842 14.4716681,11.9642431 12.5016132,13.9982341 C11.4117955,15.0576044 9.23216026,15.5237273 7.59743381,15.0576044 Z" id="Path" fill="#FDFDFD"></path>
                    </g>
                    <polygon id="Path" fill="#323232" points="84.1304348 9.04761905 84.1304348 0 81.7934783 0 79.4565217 0 79.4565217 9.04761905 79.4565217 18.0952381 81.7934783 18.0952381 84.1304348 18.0952381"></polygon>
                    <path d="M122.19734,14.3630538 L122.416504,9.94365264 L125.484803,5.52425146 C127.194283,3.09358082 128.728432,0.839686223 128.947597,0.574522152 C129.166761,0.132582035 128.728432,0 127.062785,0 L124.82731,0 L122.460337,3.62390896 L120.049531,7.20362391 L117.770223,3.62390896 L115.447083,0 L113.343107,0 C112.203453,0 111.23913,0.0883880234 111.23913,0.176776047 C111.23913,0.26516407 112.817113,2.69583471 114.745757,5.52425146 L118.252384,10.6949508 L118.252384,14.8491879 L118.252384,19.047619 L120.137196,18.915037 L121.978176,18.782455 L122.19734,14.3630538 Z" id="Path" fill="#323232"></path>
                </g>
            </g>
        </g>
    </g>
</svg>